<svg id="Layer_1" data-name="Layer 1" xmlns="http://www.w3.org/2000/svg" xmlns:xlink="http://www.w3.org/1999/xlink" viewBox="0 0 1364.8 390.1">
  <defs>
    <style>
      .cls-1 {
        fill: none;
      }

      .cls-2 {
        fill: #f16935;
      }

      .cls-3 {
        opacity: 0.17;
        fill: url(#nerenje);
      }
    </style>
    <pattern id="nerenje" data-name="nerenje" width="278.2" height="277.85" patternTransform="translate(2386.1 -185.9) scale(1 0.43)" patternUnits="userSpaceOnUse" viewBox="0 0 278.2 277.9">
      <rect class="cls-1" width="278.2" height="277.85"/>
      <g>
        <path class="cls-2" d="M114.6,250.5a.9.9,0,0,1-1-1V237a1.1,1.1,0,0,1,.3-.7.8.8,0,0,1,.7-.3H127a1.1,1.1,0,0,1,1,1,1,1,0,0,1-1,1H115.5v11.5a1,1,0,0,1-1,1Z"/>
        <path class="cls-2" d="M87.9,128.1a.9.9,0,0,1-.9-.7.9.9,0,0,1,.6-1.2l3.2-1.1L89.7,122a1,1,0,0,1,.7-1.3.9.9,0,0,1,1.2.7l1.4,4.1a1,1,0,0,1-.7,1.2l-4.1,1.4Z"/>
        <path class="cls-2" d="M55.4,250.6h-.2a.9.9,0,0,1-.7-1.2l1-4.2.5-.6h.7l4.2,1.1a1,1,0,0,1,.8,1.2,1.1,1.1,0,0,1-1.3.7l-3.2-.8-.8,3.2A1,1,0,0,1,55.4,250.6Z"/>
        <path class="cls-2" d="M184.1,259.9a1,1,0,0,1-1-.8l-1.2-6.9-6.9,1.2a1,1,0,1,1-.3-2l7.9-1.4a1,1,0,0,1,1.1.9l1.4,7.9a1,1,0,0,1-.8,1.1Z"/>
        <path class="cls-2" d="M235,159a1,1,0,0,1-1-.8l-.5-3.1-3.1.4a1,1,0,0,1-1.2-.8c0-.6.3-1.1.9-1.1l4.1-.7a1,1,0,0,1,1.2.9l.6,4.1a.9.9,0,0,1-.9,1.1Z"/>
        <path class="cls-2" d="M30.5,114a1,1,0,0,1-1-.8l-.6-2.6-2.7.6a1,1,0,0,1-1.2-.7,1.1,1.1,0,0,1,.7-1.3l3.7-.8a1,1,0,0,1,1.2.7l.9,3.6a1.1,1.1,0,0,1-.8,1.3Z"/>
        <path class="cls-2" d="M203,13.5a.9.9,0,0,1-.9-.8l-1.2-5.5a.8.8,0,0,1,.1-.8.8.8,0,0,1,.6-.4l5.6-1.2a.9.9,0,0,1,1.2.7,1,1,0,0,1-.8,1.2l-4.6,1,1,4.6a1,1,0,0,1-.7,1.2Z"/>
        <path class="cls-2" d="M147.7,143.6h0a.9.9,0,0,1-1-1v-3h-3a1,1,0,0,1-1-1,.9.9,0,0,1,1-1h4.1a1,1,0,0,1,.9,1v4.1A.9.9,0,0,1,147.7,143.6Z"/>
        <path class="cls-2" d="M35.8,161.6h-.3a1,1,0,0,1-.6-1.3l3.2-9.2a1,1,0,0,1,.5-.6h.8l9.2,3.2a1,1,0,0,1,.6,1.3.9.9,0,0,1-1.2.6l-8.3-2.9L36.8,161A1.1,1.1,0,0,1,35.8,161.6Z"/>
        <path class="cls-2" d="M126,29.9h-.2a.9.9,0,0,1-.7-1.1l2.7-13.1-13.1-2.8a1,1,0,0,1,.5-1.9l14,2.9c.3.1.5.2.6.5a1,1,0,0,1,.2.7l-3,14.1A1.1,1.1,0,0,1,126,29.9Z"/>
        <path class="cls-2" d="M258.1,111.1h-.2l-4.1-.8a1,1,0,0,1-.7-.4.9.9,0,0,1-.1-.7l.7-4.2a1,1,0,0,1,2,.4l-.6,3.1,3.2.6a1,1,0,0,1,.8,1.2A1.1,1.1,0,0,1,258.1,111.1Z"/>
        <path class="cls-2" d="M111.5,121.5l-.6-.2-2.1-1.3a1.1,1.1,0,0,1-.3-1.4,1,1,0,0,1,1.4-.3l1.3.8.8-1.3a1,1,0,1,1,1.7,1.1l-1.4,2.1A1,1,0,0,1,111.5,121.5Z"/>
        <path class="cls-2" d="M249.9,65.8c-.2,0-.5,0-.6-.2a1,1,0,0,1-.2-1.4l2.1-2.5c.1-.2.4-.3.7-.4a1.1,1.1,0,0,1,.7.3l2.5,2a1,1,0,0,1-1.3,1.6l-1.7-1.4-1.4,1.7A1.1,1.1,0,0,1,249.9,65.8Z"/>
        <path class="cls-2" d="M68.2,190.1a1.1,1.1,0,0,1-.8-.3,1,1,0,0,1,.2-1.4l1.4-1.3-1.2-1.4a1,1,0,0,1,1.5-1.3l1.9,2.2a1,1,0,0,1-.1,1.4l-2.2,1.9A1,1,0,0,1,68.2,190.1Z"/>
        <path class="cls-2" d="M258.4,132.1h-.1a1,1,0,0,1-.9-1v-1.6h-1.6a1,1,0,0,1-.9-1,.9.9,0,0,1,1-.9h2.6a.9.9,0,0,1,.9,1v2.6A1,1,0,0,1,258.4,132.1Z"/>
        <path class="cls-2" d="M256.8,210.4l-.6-.2-7.5-5.4a1.6,1.6,0,0,1-.4-.7,1,1,0,0,1,.2-.7l5.4-7.5a.9.9,0,0,1,1.4-.2.9.9,0,0,1,.2,1.4l-4.8,6.7,6.7,4.8a1.1,1.1,0,0,1,.2,1.4A1.2,1.2,0,0,1,256.8,210.4Z"/>
        <path class="cls-2" d="M143.3,183.3a.9.9,0,0,1-.7-.3,1,1,0,0,1,0-1.4l5-5.2a1,1,0,0,1,1.4,0l5.2,5.1a1.1,1.1,0,0,1,0,1.4,1,1,0,0,1-1.4,0l-4.5-4.3L144,183A1.1,1.1,0,0,1,143.3,183.3Z"/>
        <path class="cls-2" d="M19.6,42.3h-.4a1,1,0,0,1-.6-1.3l1.9-4.4L16,34.6a1,1,0,0,1-.5-1.3.9.9,0,0,1,1.3-.5L22.2,35a1,1,0,0,1,.5,1.3l-2.2,5.4A1,1,0,0,1,19.6,42.3Z"/>
        <path class="cls-2" d="M92.7,23.7a1.1,1.1,0,0,1-.9-.5,1.1,1.1,0,0,1,.3-1.4l9.4-5.7L95.7,6.7a.9.9,0,0,1,.4-1.3.9.9,0,0,1,1.3.3l6.3,10.2a1,1,0,0,1-.3,1.4L93.2,23.5Z"/>
        <path class="cls-2" d="M128.4,135a.9.9,0,0,1-.9-.6l-1.4-3.3a1,1,0,0,1,.6-1.3l3.2-1.3a1,1,0,0,1,.8,1.8l-2.3,1,.9,2.3a1,1,0,0,1-.5,1.3Z"/>
        <path class="cls-2" d="M225,8.9a.8.8,0,0,1-.7-.3l-2.4-3a1,1,0,1,1,1.5-1.2l1.8,2.1,2.1-1.7a1,1,0,1,1,1.3,1.5l-2.9,2.4A1,1,0,0,1,225,8.9Z"/>
        <path class="cls-2" d="M243,260.1a.9.9,0,0,1-1-.9.9.9,0,0,1,.9-1.1l6.3-.4-.4-6.3a.9.9,0,0,1,.9-1,.9.9,0,0,1,1.1.9l.5,7.3a1.1,1.1,0,0,1-.3.7.9.9,0,0,1-.7.3l-7.3.5Z"/>
        <path class="cls-2" d="M214.6,226.3h-.5a1,1,0,0,1-.4-1.4l1.6-2.7-2.8-1.6a1.1,1.1,0,0,1-.4-1.4,1.1,1.1,0,0,1,1.4-.3l3.6,2a1,1,0,0,1,.4,1.4l-2.1,3.6A.8.8,0,0,1,214.6,226.3Z"/>
        <path class="cls-2" d="M228.1,33.2a1.1,1.1,0,0,1-.7-.3l-10-10.5a1,1,0,0,1,1.4-1.4l9.4,9.8,9.7-9.4a1.1,1.1,0,0,1,1.4,0,1.1,1.1,0,0,1,0,1.5l-10.5,10A.9.9,0,0,1,228.1,33.2Z"/>
        <path class="cls-2" d="M250.5,14.4h-.2l-7.4-1.8a1.1,1.1,0,0,1-.7-1.3L244,4a1,1,0,0,1,1.2-.8,1.1,1.1,0,0,1,.7,1.3l-1.6,6.3,6.4,1.6a1,1,0,0,1,.8,1.2A1.1,1.1,0,0,1,250.5,14.4Z"/>
        <path class="cls-2" d="M250.6,46.9a1,1,0,0,1-1-.8l-1.1-4.3a1,1,0,0,1,.7-1.2,1.1,1.1,0,0,1,1.3.7l.8,3.3,3.4-.8a1.1,1.1,0,0,1,1.2.7,1,1,0,0,1-.8,1.2l-4.3,1.1Z"/>
        <path class="cls-2" d="M135.4,219.6a1.1,1.1,0,0,1-1-.9L132,206.1a.7.7,0,0,1,.2-.7c.1-.3.3-.4.6-.5l12.6-2.4a1,1,0,1,1,.4,2l-11.7,2.2,2.3,11.7a1,1,0,0,1-.8,1.1Z"/>
        <path class="cls-2" d="M78.8,89.5a1.1,1.1,0,0,1-1-.7,1.1,1.1,0,0,1,.7-1.3l2.3-.7-.7-2.4a1,1,0,0,1,1.9-.6l1,3.4a.9.9,0,0,1,0,.7,1.3,1.3,0,0,1-.6.5l-3.3,1Z"/>
        <path class="cls-2" d="M89.5,276h-8a1.1,1.1,0,0,1-1-1l.2-8a.9.9,0,0,1,1-.9h0a1,1,0,0,1,1,1v6.9h6.9a1.1,1.1,0,0,1,1,1A1,1,0,0,1,89.5,276Z"/>
        <path class="cls-2" d="M266.8,218.2a1.2,1.2,0,0,1-1-.7,1,1,0,0,1,.7-1.2l6.8-2.2-2.1-6.8a1,1,0,0,1,.7-1.3.9.9,0,0,1,1.2.7l2.5,7.8a1,1,0,0,1-.7,1.2l-7.8,2.5Z"/>
        <path class="cls-2" d="M164.9,104.2h-.1l-2.9-.5a.7.7,0,0,1-.6-.4.7.7,0,0,1-.2-.7l.4-2.9a1,1,0,0,1,1.2-.8,1,1,0,0,1,.8,1.1l-.3,1.9,1.9.3a1,1,0,0,1,.8,1.2A1,1,0,0,1,164.9,104.2Z"/>
        <path class="cls-2" d="M252.7,277.9a1.2,1.2,0,0,1-.9-.5l-1.5-2.6a1,1,0,0,1,.3-1.4,1,1,0,0,1,1.4.4l1,1.7,1.8-1.1a.9.9,0,0,1,1.3.4.9.9,0,0,1-.3,1.3l-2.6,1.6Z"/>
        <path class="cls-2" d="M94.1,108.2a1.1,1.1,0,0,1-1-.7l-1.9-7.6a1,1,0,0,1,.7-1.2.9.9,0,0,1,1.2.7l1.7,6.6,6.7-1.7a1.1,1.1,0,0,1,1.2.8,1.1,1.1,0,0,1-.7,1.2l-7.7,1.9Z"/>
        <path class="cls-2" d="M228.2,255.5a1.1,1.1,0,0,1-1-.8l-.6-2.9-2.9.6a.9.9,0,0,1-1.2-.7,1,1,0,0,1,.8-1.2l3.8-.9a1.1,1.1,0,0,1,1.2.8l.9,3.8a1,1,0,0,1-.8,1.2Z"/>
        <path class="cls-2" d="M115.1,143.8h-.2l-4.1-.9a1.1,1.1,0,0,1-.7-1.2l.9-4.1a1,1,0,0,1,1.2-.8.9.9,0,0,1,.7,1.2l-.7,3.1,3.2.7a1,1,0,0,1,.7,1.2A1,1,0,0,1,115.1,143.8Z"/>
        <path class="cls-2" d="M98.2,256.3a1,1,0,0,1-1-.7l-2.5-8.1-8.1,2.6a1,1,0,1,1-.6-2l9.1-2.8a1,1,0,0,1,1.2.7l2.8,9a1,1,0,0,1-.6,1.3Z"/>
        <path class="cls-2" d="M4.5,112.3a1.2,1.2,0,0,1-.9-.5,1.1,1.1,0,0,1,.5-1.4l1.7-.8-.9-1.7a1,1,0,0,1,.4-1.4,1.1,1.1,0,0,1,1.4.5L8,109.5a1.2,1.2,0,0,1-.4,1.4L5,112.2Z"/>
        <path class="cls-2" d="M134.5,165.4a1,1,0,0,1-.9-.4l-4.7-7.4a1.1,1.1,0,0,1,.3-1.4l7.4-4.7a1,1,0,1,1,1.1,1.7l-6.6,4.2,4.2,6.5a1,1,0,0,1-.3,1.4Z"/>
        <path class="cls-2" d="M188.1,37.1h-.3a1,1,0,0,1-.6-1.3l4.6-11.9-11.9-4.6a1,1,0,0,1-.6-1.3,1,1,0,0,1,1.3-.6l12.9,5a1,1,0,0,1,.6,1.3l-5,12.8A1.2,1.2,0,0,1,188.1,37.1Z"/>
        <path class="cls-2" d="M273.2,122.2H273a1,1,0,0,1-.7-1.3l.4-1.5-1.5-.4a1,1,0,0,1-.7-1.2,1.1,1.1,0,0,1,1.3-.7l2.4.7c.3.1.5.2.6.5a.9.9,0,0,1,.1.7l-.7,2.5A1,1,0,0,1,273.2,122.2Z"/>
        <path class="cls-2" d="M78.1,238.7h-.5l-5.3-2.9a1,1,0,0,1-.4-1.4.9.9,0,0,1,1.3-.4l4.5,2.4,2.4-4.4a1,1,0,0,1,1.8,1L79,238.2A1.2,1.2,0,0,1,78.1,238.7Z"/>
        <path class="cls-2" d="M2.5,151.8a1.1,1.1,0,0,1-.7-.3,1,1,0,0,1,0-1.4l1.3-1.2-1.2-1.3a1,1,0,0,1,0-1.4,1,1,0,0,1,1.4,0l1.9,2a1,1,0,0,1,0,1.4l-2,1.9A.9.9,0,0,1,2.5,151.8Z"/>
        <path class="cls-2" d="M220.2,138.3l-.6-.2-6-4.8a1,1,0,0,1,1.3-1.5l5.2,4.1,4.1-5.2a1,1,0,1,1,1.6,1.2l-4.8,6a.8.8,0,0,1-.6.4Z"/>
        <path class="cls-2" d="M73.6,143.9h-.5l-8-5.2a1.1,1.1,0,0,1-.3-1.4l5.2-8a1.1,1.1,0,0,1,1.4-.3,1,1,0,0,1,.3,1.4l-4.6,7.1,7.1,4.7a1,1,0,0,1-.6,1.8Z"/>
        <path class="cls-2" d="M18,71.8h-.3L8.4,68a1.2,1.2,0,0,1-.5-.5,1.1,1.1,0,0,1,0-.8l3.7-9.2a1,1,0,1,1,1.8.7l-3.3,8.3,8.3,3.3a1,1,0,0,1,.6,1.3A1.2,1.2,0,0,1,18,71.8Z"/>
        <path class="cls-2" d="M82.8,10.7h-.5a.9.9,0,0,1-.4-1.3L83,6.9,80.7,5.8a1.1,1.1,0,0,1-.5-1.4A1,1,0,0,1,81.6,4l3.2,1.6a1,1,0,0,1,.5,1.3l-1.7,3.3A.9.9,0,0,1,82.8,10.7Z"/>
        <path class="cls-2" d="M56.3,276.4h-.4a1,1,0,0,1-.5-1.3l1.6-4.2-4.2-1.7a1,1,0,0,1-.6-1.3,1,1,0,0,1,1.3-.5l5.2,2a1,1,0,0,1,.5,1.3l-2,5.1A1,1,0,0,1,56.3,276.4Z"/>
        <path class="cls-2" d="M270.5,276.5a.7.7,0,0,1-.6-.2,1,1,0,0,1-.2-1.4l1.1-1.6-1.6-1.2a1,1,0,0,1,1.2-1.6l2.4,1.8a.9.9,0,0,1,.2,1.4l-1.7,2.4A.9.9,0,0,1,270.5,276.5Z"/>
        <path class="cls-2" d="M274.7,195.7a.9.9,0,0,1-.8-.4l-6.2-7.5a1.1,1.1,0,0,1,.2-1.4l7.5-6.2a1.1,1.1,0,0,1,1.4.1,1.1,1.1,0,0,1-.1,1.5l-6.8,5.5,5.6,6.8a1,1,0,0,1-.2,1.4Z"/>
        <path class="cls-2" d="M70.3,216.2a1,1,0,0,1-.9-.6l-1.9-4.4a1,1,0,0,1,.5-1.4l4.4-1.9a1,1,0,0,1,1.3.5.9.9,0,0,1-.5,1.3l-3.5,1.6,1.5,3.5a1,1,0,0,1-.5,1.3Z"/>
        <path class="cls-2" d="M223.4,190.6l-.6-.2a.9.9,0,0,1-.2-1.4l1.6-2.1a.9.9,0,0,1,1.4-.2l2.1,1.6a1.1,1.1,0,0,1,.2,1.4,1.1,1.1,0,0,1-1.4.2l-1.3-1-1,1.3A1.2,1.2,0,0,1,223.4,190.6Z"/>
        <path class="cls-2" d="M11.9,163.3l-.6-.2a1.1,1.1,0,0,1-.2-1.4l2-2.6c.1-.2.4-.3.6-.4l.8.2,2.6,2a1,1,0,0,1,.1,1.4,1.1,1.1,0,0,1-1.4.2l-1.7-1.4-1.4,1.8A.9.9,0,0,1,11.9,163.3Z"/>
        <path class="cls-2" d="M272.5,55.3a.8.8,0,0,1-.7-.4l-2-2.3a1,1,0,0,1,.1-1.4l2.4-2a1,1,0,0,1,1.4.1,1.1,1.1,0,0,1-.1,1.4L271.9,52l1.4,1.7a1,1,0,0,1-.1,1.4Z"/>
        <path class="cls-2" d="M45.6,12.9h-.3a1,1,0,0,1-.6-1.3l1.1-3L42.7,7.4a1,1,0,0,1-.6-1.2,1,1,0,0,1,1.3-.6l4,1.4a.8.8,0,0,1,.5.5.9.9,0,0,1,.1.7l-1.4,4A1.2,1.2,0,0,1,45.6,12.9Z"/>
        <path class="cls-2" d="M49.4,66.4h-.2L38.3,64.6a1,1,0,0,1-.9-1.1,1,1,0,0,1,1.2-.8l9.9,1.5,1.6-9.9a.9.9,0,0,1,1.1-.8.9.9,0,0,1,.9,1.1L50.3,65.5a.8.8,0,0,1-.4.7Z"/>
        <path class="cls-2" d="M271.7,102.5h-.5l-6-3.3a.9.9,0,0,1-.4-1.3.9.9,0,0,1,1.3-.4l5.2,2.8L274,95a1.1,1.1,0,0,1,1.4-.4,1,1,0,0,1,.4,1.4l-3.3,6A.9.9,0,0,1,271.7,102.5Z"/>
        <path class="cls-2" d="M181.1,120.6H181a1.2,1.2,0,0,1-.9-1.1l.5-5.9a1,1,0,0,1,1.1-.9l5.8.5a.9.9,0,0,1,.9,1,1,1,0,0,1-1,1l-4.9-.4-.4,4.8A1,1,0,0,1,181.1,120.6Z"/>
        <path class="cls-2" d="M151.4,236.7h-.1l-5.8-.4a.9.9,0,0,1-.9-1,.9.9,0,0,1,1-1l4.9.3.2-4.8a1.1,1.1,0,0,1,1.1-1,.9.9,0,0,1,.9,1.1l-.3,5.8A1,1,0,0,1,151.4,236.7Z"/>
        <path class="cls-2" d="M15.5,137h-.4a1,1,0,0,1-.6-.5L9.9,125.3a.9.9,0,0,1,.5-1.3,1,1,0,0,1,1.3.5L16,134.7l10.1-4.3a1.1,1.1,0,0,1,1.4.5,1.2,1.2,0,0,1-.6,1.4l-11.1,4.6Z"/>
        <path class="cls-2" d="M159.5,130a1.1,1.1,0,0,1-.9-.5,1,1,0,0,1,.4-1.4l5.9-3.2-3.2-5.9a1,1,0,0,1,.4-1.4,1.1,1.1,0,0,1,1.3.4l3.7,6.8a1,1,0,0,1-.4,1.4l-6.7,3.7Z"/>
        <path class="cls-2" d="M96.8,199.2h-.3l-8.8-2.1a.8.8,0,0,1-.6-.4,1.1,1.1,0,0,1-.1-.8l2-8.8a1.1,1.1,0,0,1,1.3-.7,1,1,0,0,1,.7,1.2l-1.8,7.8,7.8,1.8a1,1,0,0,1,.7,1.2A.9.9,0,0,1,96.8,199.2Z"/>
        <path class="cls-2" d="M264.9,9.5a1.1,1.1,0,0,1-1-.6l-2.7-7.6a.9.9,0,0,1,.6-1.2,1,1,0,0,1,1.3.6l2.4,6.6,6.6-2.4a1,1,0,0,1,.7,1.9l-7.6,2.7Z"/>
        <path class="cls-2" d="M148.5,60a1,1,0,0,1-1-.8l-2.8-12.8a1.1,1.1,0,0,1,.8-1.2l12.8-2.7a.9.9,0,0,1,1.2.7,1,1,0,0,1-.8,1.2L146.9,47l2.5,11.8a.9.9,0,0,1-.7,1.2Z"/>
        <path class="cls-2" d="M75.5,172.9a.9.9,0,0,1-.8-.4l-5.1-8a1.1,1.1,0,0,1-.2-.8c.1-.2.2-.5.5-.6l7.9-5.2a1.1,1.1,0,0,1,1.4.3,1,1,0,0,1-.3,1.4l-7.1,4.6,4.6,7.2a1.1,1.1,0,0,1-.3,1.4Z"/>
        <path class="cls-2" d="M7.1,274.9a1,1,0,0,1-.7-.2,1,1,0,0,1,0-1.4l6.4-6.8a1.1,1.1,0,0,1,1.5,0l6.7,6.4a1,1,0,0,1,0,1.4,1.1,1.1,0,0,1-1.4.1l-6-5.8-5.8,6A.9.9,0,0,1,7.1,274.9Z"/>
        <path class="cls-2" d="M183,166.9a.9.9,0,0,1-1-1v-3.2a1,1,0,0,1,.9-1h3.3a1,1,0,0,1,0,2h-2.2v2.2a1,1,0,0,1-1,1Z"/>
        <path class="cls-2" d="M217.1,178.9h-.3a1,1,0,0,1-.6-1.3l2.7-8.7c0-.2.2-.4.5-.6a.9.9,0,0,1,.7,0l8.7,2.7a1,1,0,0,1,.7,1.2,1,1,0,0,1-1.3.7l-7.7-2.4-2.4,7.7A1.2,1.2,0,0,1,217.1,178.9Z"/>
        <path class="cls-2" d="M243.3,122.4H243l-11.5-3.8a.6.6,0,0,1-.6-.5.9.9,0,0,1-.1-.7l3.8-11.5a1.1,1.1,0,0,1,1.3-.7,1,1,0,0,1,.6,1.3L233,117l10.6,3.4a1,1,0,0,1,.6,1.3A1,1,0,0,1,243.3,122.4Z"/>
        <path class="cls-2" d="M176.5,145.6l-.6-.3a1.1,1.1,0,0,1-.2-1.4l4-5a1.1,1.1,0,0,1,1.4-.2l5.1,4a1,1,0,0,1,.1,1.4,1.1,1.1,0,0,1-1.4.2l-4.2-3.4-3.4,4.3A1.2,1.2,0,0,1,176.5,145.6Z"/>
        <path class="cls-2" d="M38.8,97.4h-.2a1,1,0,0,1-.7-1.2l2-9.5-9.5-2.1a1,1,0,0,1-.8-1.1,1.1,1.1,0,0,1,1.2-.8l10.5,2.2a1.2,1.2,0,0,1,.8,1.2L39.8,96.6A1,1,0,0,1,38.8,97.4Z"/>
        <path class="cls-2" d="M120.6,192.6h-.2l-11.3-2.7a1,1,0,0,1-.8-1.2,1.1,1.1,0,0,1,1.2-.7l10.4,2.4,2.4-10.3a1,1,0,0,1,1.2-.7,1,1,0,0,1,.8,1.2l-2.7,11.3A1.1,1.1,0,0,1,120.6,192.6Z"/>
        <path class="cls-2" d="M114.4,38.2a.9.9,0,0,1-.9-.6l-1.3-3.3-3.3,1.2a1,1,0,1,1-.7-1.9l4.3-1.6a.9.9,0,0,1,.7.1,1,1,0,0,1,.6.5l1.5,4.3a1,1,0,0,1-.6,1.3Z"/>
        <path class="cls-2" d="M129,106.6h-.2l-10.4-2.1a1,1,0,0,1-.7-.4,1.1,1.1,0,0,1-.1-.8l2.1-10.4a1,1,0,0,1,2,.4l-1.9,9.5,9.4,1.9a1,1,0,0,1,.8,1.2A1.1,1.1,0,0,1,129,106.6Z"/>
        <path class="cls-2" d="M244.8,187.8h-.1a1,1,0,0,1-.9-1.2l1.9-13.2a1,1,0,0,1,1.1-.8l13.2,1.9a1,1,0,0,1,.9,1.1,1.1,1.1,0,0,1-1.2.9l-12.2-1.8-1.7,12.2A1.1,1.1,0,0,1,244.8,187.8Z"/>
        <path class="cls-2" d="M12.8,96.3a1,1,0,0,1-1-.7l-1.7-5.4L4.7,91.9a1,1,0,0,1-1.3-.7A.9.9,0,0,1,4.1,90l6.3-2a1,1,0,0,1,1.3.6l2,6.4a1,1,0,0,1-.6,1.3Z"/>
        <path class="cls-2" d="M171.3,66.6a1.3,1.3,0,0,1-.9-.4,1,1,0,0,1,.3-1.4l1.9-1.4-1.4-1.9a1,1,0,0,1,.2-1.4,1.1,1.1,0,0,1,1.4.2l2,2.7a1.1,1.1,0,0,1,.1.8.6.6,0,0,1-.4.6l-2.7,2Z"/>
        <path class="cls-2" d="M107.4,87.2a.9.9,0,0,1-.8-.5l-5.8-9.3a2.2,2.2,0,0,1-.1-.8,1.5,1.5,0,0,1,.5-.6l9.3-5.7a1,1,0,0,1,1.1,1.7l-8.5,5.2,5.2,8.5a1,1,0,0,1-.4,1.4Z"/>
        <path class="cls-2" d="M162.9,165.2a.9.9,0,0,1-.7-.3l-6.1-5.9a1,1,0,0,1,0-1.4l5.9-6a1,1,0,0,1,1.4,1.4l-5.1,5.3,5.3,5.2a1,1,0,0,1,0,1.4A.9.9,0,0,1,162.9,165.2Z"/>
        <path class="cls-2" d="M232.1,61.6h-.5l-9.8-5.2a1,1,0,0,1-.4-1.4.9.9,0,0,1,1.3-.4l9,4.8,4.8-9a.9.9,0,0,1,1.3-.4,1,1,0,0,1,.4,1.4L233,61.1a1.5,1.5,0,0,1-.6.5Z"/>
        <path class="cls-2" d="M50.1,229.6H50a.9.9,0,0,1-.8-1.1l.7-4.1a1.6,1.6,0,0,1,.4-.7,1.1,1.1,0,0,1,.8-.1l4.1.7a1,1,0,0,1,.8,1.2,1,1,0,0,1-1.2.8l-3.1-.6-.6,3.1A1.1,1.1,0,0,1,50.1,229.6Z"/>
        <path class="cls-2" d="M243.9,238.3l-.5-.2L232.1,231a1,1,0,0,1-.3-1.4l7.2-11.3a1,1,0,0,1,1.3-.3,1.1,1.1,0,0,1,.4,1.4L234,229.8l10.4,6.6a1,1,0,0,1,.3,1.4A.9.9,0,0,1,243.9,238.3Z"/>
        <path class="cls-2" d="M174.3,92.2a1,1,0,0,1-.7-.2l-5.7-4.8a1,1,0,0,1-.1-1.4l4.8-5.7A1,1,0,0,1,174,80a1.1,1.1,0,0,1,.1,1.4l-4.2,4.9,5,4.2a1,1,0,0,1,.1,1.4A.8.8,0,0,1,174.3,92.2Z"/>
        <path class="cls-2" d="M272.6,142.6a1.2,1.2,0,0,1-1-.7l-.9-2.5a1,1,0,0,1,.6-1.3l2.6-.9a1,1,0,0,1,1.3.6,1.1,1.1,0,0,1-.6,1.3l-1.7.5.6,1.7a.9.9,0,0,1-.6,1.2Z"/>
        <path class="cls-2" d="M39,45.6a1.1,1.1,0,0,1-1-.9L36.7,30.3a.9.9,0,0,1,.9-1.1L52,27.9a.9.9,0,0,1,1,.9,1,1,0,0,1-.9,1.1L38.8,31.1,40,44.5a1,1,0,0,1-.9,1.1Z"/>
        <path class="cls-2" d="M129,255a1.2,1.2,0,0,1-.9-.5,1.1,1.1,0,0,1,.4-1.4l1.3-.7-.7-1.2a1,1,0,0,1,.4-1.4,1.2,1.2,0,0,1,1.4.4l1.1,2.2a.9.9,0,0,1-.4,1.3l-2.1,1.2Z"/>
        <path class="cls-2" d="M126.3,81.7a.9.9,0,0,1-.7-.3l-2-1.7a1,1,0,1,1,1.3-1.5l1.3,1.1,1-1.3a1,1,0,1,1,1.5,1.3l-1.7,2A1,1,0,0,1,126.3,81.7Z"/>
        <path class="cls-2" d="M4.8,220.6l-.6-.2A.9.9,0,0,1,4,219l3.1-4.2-4.3-3.1a1.1,1.1,0,0,1-.2-1.4.9.9,0,0,1,1.4-.2l5,3.6a1,1,0,0,1,.3,1.4l-3.7,5.1A1.2,1.2,0,0,1,4.8,220.6Z"/>
        <path class="cls-2" d="M268.8,32.4h-.2l-12.8-2.6a.9.9,0,0,1-.7-1.1.9.9,0,0,1,1.1-.8L268,30.2l2.4-11.7a1,1,0,0,1,1.2-.8.9.9,0,0,1,.7,1.2l-2.5,12.7A1,1,0,0,1,268.8,32.4Z"/>
        <path class="cls-2" d="M164.1,22.9H164a1,1,0,0,1-.9-1l.6-7.3-7.2-.6a1.1,1.1,0,0,1-1-1.1c.1-.5.6-1,1.1-.9l8.3.7a1,1,0,0,1,.9,1.1l-.7,8.2A1,1,0,0,1,164.1,22.9Z"/>
        <path class="cls-2" d="M172.4,236.9H172a1,1,0,0,1-.5-1.3l3.9-8.7-8.7-3.8a1.1,1.1,0,0,1,.9-1.9l9.5,4.3a.9.9,0,0,1,.5,1.3l-4.3,9.6A.9.9,0,0,1,172.4,236.9Z"/>
        <path class="cls-2" d="M146.7,121.2a1.2,1.2,0,0,1-.8-.4l-4.8-6.4a1.1,1.1,0,0,1,.2-1.4l6.3-4.8a1.1,1.1,0,0,1,1.4.2.9.9,0,0,1-.2,1.4l-5.5,4.2,4.2,5.6a1.1,1.1,0,0,1-.2,1.4Z"/>
        <path class="cls-2" d="M198.7,179.2a1.1,1.1,0,0,1-.9-.5,1,1,0,0,1,.4-1.4l1.8-1-1.1-1.8a1.1,1.1,0,0,1,.4-1.4,1,1,0,0,1,1.4.4l1.5,2.7a.9.9,0,0,1-.4,1.3l-2.7,1.6Z"/>
        <path class="cls-2" d="M40.2,204.8a1,1,0,0,1-1-.7.9.9,0,0,1,.7-1.2L52,199.8l-3.1-12.1a.9.9,0,0,1,.7-1.2,1,1,0,0,1,1.2.7l3.3,13a.8.8,0,0,1-.1.8,1,1,0,0,1-.6.5l-13,3.3Z"/>
        <path class="cls-2" d="M109.8,277.9a1.1,1.1,0,0,1-.9-.6l-3.3-7a1,1,0,0,1,.5-1.3l6.9-3.3a1.1,1.1,0,0,1,1.4.5,1,1,0,0,1-.5,1.3l-6.1,2.9,2.9,6a1.1,1.1,0,0,1-.5,1.4Z"/>
        <path class="cls-2" d="M49.3,133a1.1,1.1,0,0,1-1-.6l-3.8-10a1,1,0,0,1,.6-1.3l9.9-3.8a1,1,0,0,1,1.3.6.9.9,0,0,1-.6,1.2l-9,3.5,3.5,9.1a.9.9,0,0,1-.6,1.2Z"/>
        <path class="cls-2" d="M152.9,30h0l-7.1-.4a1,1,0,0,1-1-1l.4-7.1a.9.9,0,0,1,1-.9,1,1,0,0,1,1,1l-.3,6.1,6.1.3a1,1,0,0,1,.9,1A.9.9,0,0,1,152.9,30Z"/>
        <path class="cls-2" d="M245,145.7a1,1,0,0,1-.9-.9l-1-6.1-6.2,1a1,1,0,0,1-1.1-.8,1,1,0,0,1,.8-1.2l7.1-1.1a1,1,0,0,1,1.2.8l1.1,7.1a1,1,0,0,1-.8,1.2Z"/>
        <path class="cls-2" d="M229.3,277.3l-.6-.2a1,1,0,0,1-.3-1.4l2.3-3.1a1.1,1.1,0,0,1,1.4-.2l3,2.2a1,1,0,0,1,.3,1.4.9.9,0,0,1-1.4.2l-2.3-1.6-1.6,2.3A1.2,1.2,0,0,1,229.3,277.3Z"/>
        <path class="cls-2" d="M236.7,98.5l-.6-.2a1.1,1.1,0,0,1-.2-1.4l7.6-11.5-11.6-7.7a1.1,1.1,0,0,1-.3-1.4A1.1,1.1,0,0,1,233,76l12.4,8.2a1,1,0,0,1,.3,1.4L237.5,98A1,1,0,0,1,236.7,98.5Z"/>
        <path class="cls-2" d="M227,207.5a1.1,1.1,0,0,1-.8-.3l-3.9-4.3a1,1,0,0,1,0-1.4,1.1,1.1,0,0,1,1.5,0l3.2,3.6,3.6-3.3a.9.9,0,0,1,1.4.1,1,1,0,0,1-.1,1.4l-4.2,3.9A1.1,1.1,0,0,1,227,207.5Z"/>
        <path class="cls-2" d="M6.7,18.7a1.2,1.2,0,0,1-.8-.4L2.1,13.1a.9.9,0,0,1,.2-1.4L7.5,7.8A1,1,0,0,1,8.9,8a1.1,1.1,0,0,1-.2,1.4L4.3,12.7l3.2,4.4a.9.9,0,0,1-.2,1.4Z"/>
        <path class="cls-2" d="M196.8,70.6a1.1,1.1,0,0,1-.7-.3,1,1,0,0,1,0-1.4l7.5-7.7-7.8-7.5a1,1,0,0,1,1.4-1.5l8.5,8.2a1,1,0,0,1,0,1.4l-8.1,8.5A1.1,1.1,0,0,1,196.8,70.6Z"/>
        <path class="cls-2" d="M174.2,186.4a1.1,1.1,0,0,1-.9-.6l-4-8a.9.9,0,0,1,.4-1.3,1,1,0,0,1,1.4.4l3.6,7.1,7.1-3.6a1,1,0,0,1,1.3.4,1,1,0,0,1-.4,1.4l-8,4.1Z"/>
        <path class="cls-2" d="M69.7,260.2a1.1,1.1,0,0,1-.9-.5,1.1,1.1,0,0,1,.4-1.4l3.7-2-2.1-3.7a1,1,0,0,1,.4-1.4,1.1,1.1,0,0,1,1.4.4l2.5,4.5a1.2,1.2,0,0,1,.1.8c-.1.3-.2.5-.5.6l-4.5,2.6Z"/>
        <path class="cls-2" d="M44.3,177.2h-.2a1,1,0,0,1-.8-1.2l.8-5.3a1,1,0,0,1,1.1-.9l5.4.8a1,1,0,0,1,.8,1.1.9.9,0,0,1-1.1.9l-4.4-.7-.6,4.4A1.1,1.1,0,0,1,44.3,177.2Z"/>
        <path class="cls-2" d="M273.1,258.3a1.2,1.2,0,0,1-.9-.5l-1.9-3.9a1.1,1.1,0,0,1-.1-.8l.5-.5,3.9-2a1,1,0,0,1,1.4.4,1.1,1.1,0,0,1-.5,1.4l-3,1.5,1.5,3a.9.9,0,0,1-.4,1.3Z"/>
        <path class="cls-2" d="M131.8,66.6a1,1,0,0,1-.9-.7L127,53.8l-12,3.9a1.2,1.2,0,0,1-1.3-.7,1,1,0,0,1,.7-1.2l13-4.2a.9.9,0,0,1,1.2.7l4.2,13a.9.9,0,0,1-.6,1.2Z"/>
        <path class="cls-2" d="M155.9,254.9h-.3a1.1,1.1,0,0,1-.7-1.3l1.8-6.2-6.2-1.8a.9.9,0,0,1-.7-1.2.9.9,0,0,1,1.2-.7l7.2,2a1.1,1.1,0,0,1,.7,1.3l-2,7.2A1.2,1.2,0,0,1,155.9,254.9Z"/>
        <path class="cls-2" d="M258.4,88.2H258a1,1,0,0,1-.5-1.3l5.6-13.2a1.2,1.2,0,0,1,.5-.5h.8l13.2,5.5a1.1,1.1,0,0,1,.5,1.4,1,1,0,0,1-1.3.5l-12.3-5.2-5.2,12.3A1,1,0,0,1,258.4,88.2Z"/>
        <path class="cls-2" d="M263.6,244.3h-.5a1.1,1.1,0,0,1-.4-1.4l5.1-9.2-9.3-5a1.2,1.2,0,0,1-.4-1.4,1,1,0,0,1,1.4-.4l10.1,5.5a1,1,0,0,1,.4,1.4l-5.5,10.1A1.1,1.1,0,0,1,263.6,244.3Z"/>
        <path class="cls-2" d="M66.5,51.4a1.2,1.2,0,0,1-1-.7l-4-10.6a1,1,0,0,1,.6-1.3.9.9,0,0,1,1.2.6L67,49.1l9.7-3.7A1,1,0,0,1,78,46a1,1,0,0,1-.6,1.3l-10.6,4Z"/>
        <path class="cls-2" d="M194.9,217.9a.9.9,0,0,1-.9-.8l-3.1-14.5a.9.9,0,0,1,.7-1.1l14.5-3.2a1,1,0,0,1,1.2.8,1,1,0,0,1-.8,1.2L193,203.2l2.9,13.5a1,1,0,0,1-.8,1.2Z"/>
        <path class="cls-2" d="M100.6,176.8a1,1,0,0,1-1-.9l-.7-13.2a1.4,1.4,0,0,1,.2-.7,1.1,1.1,0,0,1,.7-.3l13.2-.8a1,1,0,0,1,1,1,.9.9,0,0,1-.9,1l-12.2.7.7,12.1a1,1,0,0,1-1,1.1Z"/>
        <path class="cls-2" d="M197.4,135h-.3l-3.7-1.1a1,1,0,0,1-.7-1.2l1.1-3.6a.9.9,0,0,1,1.2-.7.9.9,0,0,1,.7,1.2l-.8,2.7,2.7.8a.9.9,0,0,1,.7,1.2A.9.9,0,0,1,197.4,135Z"/>
        <path class="cls-2" d="M85.7,68.1h-.4l-4.6-1.5a1,1,0,0,1-.6-1.3.9.9,0,0,1,1.2-.6L85,65.9l1.2-3.7a1,1,0,0,1,1.3-.6.9.9,0,0,1,.6,1.2l-1.5,4.6A.9.9,0,0,1,85.7,68.1Z"/>
        <path class="cls-2" d="M139.1,274.7H139l-14-1.3a1,1,0,0,1-.9-1.1,1.2,1.2,0,0,1,1.1-.9l13,1.3,1.2-13a1,1,0,0,1,1.1-.9.9.9,0,0,1,.9,1.1l-1.3,13.9A1,1,0,0,1,139.1,274.7Z"/>
        <path class="cls-2" d="M81.9,34.3l-.6-.2-2-1.5a1.1,1.1,0,0,1-.2-1.4l1.5-2A.9.9,0,0,1,82,29a.9.9,0,0,1,.2,1.4l-.9,1.2,1.2.9a1,1,0,0,1,.2,1.4A1.2,1.2,0,0,1,81.9,34.3Z"/>
        <path class="cls-2" d="M38.4,275.4H35a.8.8,0,0,1-.7-.3,1.1,1.1,0,0,1-.3-.7v-3.5a1,1,0,0,1,2,0v2.5h2.5a1,1,0,0,1,.9,1.1A.9.9,0,0,1,38.4,275.4Z"/>
        <path class="cls-2" d="M91.8,223.9h-.2a1,1,0,0,1-.8-1.2l1-3.9-3.8-1a1,1,0,0,1-.8-1.2,1.1,1.1,0,0,1,1.3-.7l4.8,1.2a1.1,1.1,0,0,1,.7,1.3l-1.2,4.8A1,1,0,0,1,91.8,223.9Z"/>
        <path class="cls-2" d="M215.6,277.7h-.1l-9.1-1a1.2,1.2,0,0,1-.9-1.1,1,1,0,0,1,1.2-.9l8,.9.9-8a1,1,0,0,1,1.2-.9,1,1,0,0,1,.8,1.1l-1,9.1A1,1,0,0,1,215.6,277.7Z"/>
        <path class="cls-2" d="M8.6,255.7a.9.9,0,0,1-.9-.8L5,242.7a1,1,0,0,1,.7-1.2l12.2-2.7a1,1,0,0,1,1.2.8,1,1,0,0,1-.8,1.2L7.1,243.3l2.5,11.2a1,1,0,0,1-.7,1.2Z"/>
        <path class="cls-2" d="M17.6,200.4a.8.8,0,0,1-.7-.4,1,1,0,0,1,.1-1.4l10.7-8.5-8.5-10.6a1,1,0,0,1,1.6-1.3l9.1,11.5a1.1,1.1,0,0,1-.2,1.4l-11.4,9.1Z"/>
        <path class="cls-2" d="M140.4,7h-.5a.9.9,0,0,1-.4-1.3l1.8-3.5a.9.9,0,0,1,1.3-.4l3.5,1.8a.9.9,0,0,1,.4,1.3.9.9,0,0,1-1.3.4l-2.6-1.3-1.3,2.6A1.2,1.2,0,0,1,140.4,7Z"/>
        <path class="cls-2" d="M206.8,156.8a1.1,1.1,0,0,1-.9-.4l-4-6.4a1.1,1.1,0,0,1,.3-1.4,1,1,0,0,1,1.4.3l3.5,5.6,5.6-3.5a.9.9,0,0,1,1.3.3,1,1,0,0,1-.3,1.4l-6.4,4Z"/>
        <path class="cls-2" d="M158.8,275.7l-.6-.2a1,1,0,0,1-.1-1.4l7.5-9.7a1,1,0,0,1,1.4-.1l9.7,7.6a1,1,0,0,1-1.3,1.5l-8.8-6.9-7,8.8A1.2,1.2,0,0,1,158.8,275.7Z"/>
        <path class="cls-2" d="M24.1,14.2a.9.9,0,0,1-.6-.3,1,1,0,0,1-.1-1.4l2.3-2.4L23.3,7.8a1,1,0,1,1,1.4-1.4l3.1,2.9a1.2,1.2,0,0,1,.1,1.5l-3,3.1A1.1,1.1,0,0,1,24.1,14.2Z"/>
        <path class="cls-2" d="M154.3,86.3a1.1,1.1,0,0,1-.9-.6l-4.5-10.4a1.1,1.1,0,0,1,.5-1.4l10.4-4.5a1.1,1.1,0,0,1,1.4.6,1,1,0,0,1-.6,1.3l-9.5,4.1,4.2,9.5a1,1,0,0,1-.6,1.3Z"/>
        <path class="cls-2" d="M113.5,218.9h-.2l-4.6-.5a1,1,0,0,1-.8-1.2.9.9,0,0,1,1.1-.8l3.6.4.4-3.6a1,1,0,0,1,1.1-.9c.6,0,.9.5.9,1.1l-.5,4.6A1.1,1.1,0,0,1,113.5,218.9Z"/>
        <path class="cls-2" d="M143.9,95.9h-.4L138,93.5a.9.9,0,0,1-.5-1.3l2.3-5.5a1,1,0,1,1,1.8.8l-1.9,4.6,4.6,1.9a1,1,0,0,1,.5,1.3A.9.9,0,0,1,143.9,95.9Z"/>
        <path class="cls-2" d="M178.8,6a.8.8,0,0,1-.7-.2l-2.4-2a1.2,1.2,0,0,1-.1-1.5,1.1,1.1,0,0,1,1.4-.1l1.7,1.4L180.1,2a1,1,0,0,1,1.4-.1,1.1,1.1,0,0,1,.1,1.4l-2.1,2.4A.9.9,0,0,1,178.8,6Z"/>
        <path class="cls-2" d="M208.6,49a.9.9,0,0,1-.8-.4L203.3,42a1,1,0,0,1,.3-1.4l6.5-4.4a1,1,0,0,1,1.4.2,1.1,1.1,0,0,1-.2,1.4l-5.8,3.9,4,5.8a.9.9,0,0,1-.3,1.3A.7.7,0,0,1,208.6,49Z"/>
        <path class="cls-2" d="M58.3,23.3a1,1,0,0,1-.9-.6.9.9,0,0,1,.4-1.3l11.9-6.3L63.4,3.2a1,1,0,0,1,.4-1.4.9.9,0,0,1,1.3.4L71.9,15a.8.8,0,0,1,.1.8,1.3,1.3,0,0,1-.5.6L58.7,23.2Z"/>
        <path class="cls-2" d="M2,191.3l-.6-.2a1.1,1.1,0,0,1-.2-1.5l4-4.8-4.8-4a1,1,0,0,1-.2-1.4,1,1,0,0,1,1.4-.2l5.7,4.7a1,1,0,0,1,.1,1.4l-4.6,5.6A.9.9,0,0,1,2,191.3Z"/>
        <path class="cls-2" d="M24.6,228a1.1,1.1,0,0,1-.9-.6,1,1,0,0,1,.5-1.3l6.8-3.3L27.7,216a1,1,0,1,1,1.8-.8l3.7,7.7a.9.9,0,0,1,.1.7,1,1,0,0,1-.5.6l-7.7,3.7Z"/>
        <path class="cls-2" d="M184,54.1h-.1l-12.4-2a1,1,0,0,1-.7-.4.9.9,0,0,1-.1-.7l1.9-12.4a1,1,0,0,1,1.2-.8,1,1,0,0,1,.8,1.1l-1.8,11.4,11.4,1.8a1,1,0,0,1,.8,1.2A1,1,0,0,1,184,54.1Z"/>
        <path class="cls-2" d="M189.5,97.4h-.3a.9.9,0,0,1-.7-1.2l3.1-10.2-10.2-3.1a1,1,0,0,1-.6-1.3,1,1,0,0,1,1.2-.7l11.1,3.4a1,1,0,0,1,.6.5.8.8,0,0,1,.1.8l-3.4,11.1A.9.9,0,0,1,189.5,97.4Z"/>
        <path class="cls-2" d="M203,119.4h-.3a1,1,0,0,1-.6-1.3l3.6-10.5a.9.9,0,0,1,1.2-.6l10.5,3.6a1,1,0,0,1,.7,1.3,1,1,0,0,1-1.3.6l-9.6-3.3-3.2,9.6A1.1,1.1,0,0,1,203,119.4Z"/>
        <path class="cls-2" d="M92.9,146.6l-.5-.2L90,145.1a.9.9,0,0,1-.4-1.3.9.9,0,0,1,1.3-.4l1.6.8.8-1.6a1.2,1.2,0,0,1,1.4-.4,1.1,1.1,0,0,1,.4,1.4L93.7,146A.8.8,0,0,1,92.9,146.6Z"/>
        <path class="cls-2" d="M57.7,98.9a1.2,1.2,0,0,1-.9-.5l-1.1-2.2a1.1,1.1,0,0,1,.3-1.4,1.1,1.1,0,0,1,1.4.4l.7,1.3,1.3-.7a1,1,0,0,1,1.4.4,1.1,1.1,0,0,1-.4,1.4l-2.2,1.2Z"/>
        <path class="cls-2" d="M98.5,54a1,1,0,0,1-1-1V46.8H91.3a1,1,0,0,1-1-1,1.1,1.1,0,0,1,1-1h7.2a1,1,0,0,1,1,1V53a.9.9,0,0,1-1,1Z"/>
        <path class="cls-2" d="M31.8,253.4a1,1,0,0,1-.3-2l4.3-1.4-1.4-4.3a1,1,0,0,1,1.9-.7l1.7,5.3a1,1,0,0,1-.6,1.3l-5.3,1.7Z"/>
        <path class="cls-2" d="M203.9,254h-.2a.9.9,0,0,1-.8-1.1l1.4-11.3-11.4-1.4a1.2,1.2,0,0,1-.9-1.1,1,1,0,0,1,1.1-.9l12.4,1.5a1.2,1.2,0,0,1,.9,1.1l-1.5,12.4A1,1,0,0,1,203.9,254Z"/>
        <path class="cls-2" d="M71.7,113.1h-.2a1,1,0,0,1-.7-1.2l.7-3.3a1.1,1.1,0,0,1,1.2-.7l3.3.8a1,1,0,0,1,.7,1.2,1,1,0,0,1-1.2.7l-2.3-.5-.5,2.2A1,1,0,0,1,71.7,113.1Z"/>
        <path class="cls-2" d="M63.8,80.3a1.1,1.1,0,0,1-.9-.6l-2.7-6.5a1,1,0,0,1,.5-1.3l6.4-2.7a1.2,1.2,0,0,1,1.4.6,1,1,0,0,1-.6,1.3l-5.5,2.3,2.4,5.5a1,1,0,0,1-.6,1.3Z"/>
        <path class="cls-2" d="M2.9,46.6a.9.9,0,0,1-.7-.3,1,1,0,0,1,0-1.4l2.2-2.3L2.1,40.4a1,1,0,0,1,0-1.4,1,1,0,0,1,1.4,0l3,2.9a1,1,0,0,1,0,1.4l-2.9,3A1.1,1.1,0,0,1,2.9,46.6Z"/>
        <path class="cls-2" d="M274.3,163.4a.9.9,0,0,1-.7-.3l-2-2.2a1.1,1.1,0,0,1,.1-1.5l2.2-1.9a1,1,0,1,1,1.3,1.5l-1.4,1.3,1.3,1.5a1.1,1.1,0,0,1-.1,1.4Z"/>
        <path class="cls-2" d="M253.9,157h-.6a1,1,0,0,1-.3-1.4l2.7-3.9a.9.9,0,0,1,1.3-.2l3.9,2.6a1,1,0,0,1,.3,1.4,1.1,1.1,0,0,1-1.4.2l-3.1-2-2,3A.9.9,0,0,1,253.9,157Z"/>
        <path class="cls-2" d="M160.4,209.1h-.5a1,1,0,0,1-.4-1.4l4.7-7.5a1,1,0,0,1,1.4-.4l7.6,4.7a1.1,1.1,0,0,1,.3,1.4,1,1,0,0,1-1.4.3l-6.7-4.1-4.2,6.7A.9.9,0,0,1,160.4,209.1Z"/>
        <path class="cls-2" d="M219.6,97.3c-.2,0-.5,0-.6-.2l-10.6-8.9a.8.8,0,0,1-.4-.6,1.1,1.1,0,0,1,.3-.8l8.8-10.5a1,1,0,0,1,1.6,1.2l-8.3,9.9,9.8,8.2a1,1,0,0,1,.2,1.4A1.1,1.1,0,0,1,219.6,97.3Z"/>
        <path class="cls-2" d="M186.1,277.8h0a1,1,0,0,1-1-1l.2-4.1a1.1,1.1,0,0,1,1.1-1l4.1.2a1.1,1.1,0,0,1,.9,1.1.9.9,0,0,1-1,.9h-3.1l-.2,3.1A1,1,0,0,1,186.1,277.8Z"/>
      </g>
    </pattern>
  </defs>
  <title>background</title>
  <rect class="cls-3" width="1364.8" height="390.07"/>
</svg>
