<svg viewBox="0 0 886.9 764.4" xmlns="http://www.w3.org/2000/svg" xmlns:xlink="http://www.w3.org/1999/xlink"><clipPath id="a" transform="translate(132.1 29.5)"><path d="m-1-.3h795v715h-795z"/></clipPath><linearGradient id="b" gradientTransform="matrix(-1 0 0 1 -9766.58 0)" gradientUnits="userSpaceOnUse" x1="-10521.37" x2="-9768.55" y1="352.73" y2="352.73"><stop offset=".07" stop-color="#f16935"/><stop offset="1" stop-color="#fee593"/></linearGradient><linearGradient id="c" gradientTransform="matrix(-1 0 0 1 -9766.58 0)" gradientUnits="userSpaceOnUse" x1="-10113.72" x2="-10121.2" y1="-19.34" y2="451.66"><stop offset="0" stop-color="#5f2265" stop-opacity=".9"/><stop offset=".59" stop-color="#e64473"/><stop offset="1" stop-color="#fee593"/></linearGradient><g clip-path="url(#a)"><path d="m90.9-1.4c75.8-6.4 145.3-11.3 217.1 21 69.2 31.2 106.3 93.4 162.3 141.1 100 85 298.6 200.4 283.7 312-4.6 34.6-45.5 35.2-86 85-29.7 36.6 33 119-31 157-38.2 22.7-131.5 22.4-175.6 17.6h-459.4v-761.8z" fill="url(#b)" opacity=".66" transform="translate(132.1 29.5)"/><path d="m-.6-3.6c.1-6.9 86.2-9.3 95.7-9.1 33.2.8 66.4 5.9 98.1 16.2 67.4 21.9 118.5 65.9 162.5 120.1 27.9 34.4 68.1 47.7 108.8 60.7 45.3 14.4 84.9 34.1 118.9 68.2 72.7 72.9 131.2 104.9 133.6 205.2l-724.6 1c3-227.2 7-462 7-462.3z" fill="url(#c)" transform="translate(132.1 29.5)"/><path d="m702.8 405.9v-17.7h-5v-5.8h20.9v-3.6h-20.9v-1.6h-3.6v1.6h-3.2v3.6h3.2v5.8h-15v19.4h-11.2v-5.8h11.2v-3.6h-26.1v3.6h11.2v5.8h-16.2v8.4h-7.6v-4.2h-7.6v-66.5h-5v-10.1h-16v78.3h-30.3v-78.3h-12.7v6.7h-6.7v53h-10.9v14.3h-5.1v-14.3h-21v-9.2h-9.3v-11h-8.4v-24.4h-13.5v9.3h-33.6v35.3h-17.7v-11.7h-21v-23.6h-52.2v27.8h-8.1v7.5h-5.4v-47.9h-5.9v-11.8h-10.1v10.1h-10.9v40.4h-5v9.2h-5.9v-28.6h-41.3v23.6h-13.4v10.1h-7.6v5.9h-7.6v-6.8l-4.6-4.6v-10.5h-20.6v24.4h-7.6v-5.9h-8.4v-67.3h-6.8v-18.5h-7.5v-9.3h-10.1v-7.6h-15.2v13.5h-8.4v14.3h-5v49.6h-9.3v-9.2h-11.8v13.5h-13.4v-38.7l-5.1-5.1v-17.7h-27.8v12.7h-14.3v25.2h-6.7v-5h-8.4l-5.1 5-2.2 2.2v58.4h-9.5v-58.1h-8.5v-5.9h-12.6v9.3h-11.8v15h-6.6v-6.6h-3.6v6.6h-15.9v3.6h15.9v19.3h-1.6v16h-27.7v-16h-9.3v-18.5l-3.8-3.8v-9.7h-15.5v26.1h-21.1v16.8h-28.6l-3.4-3.4h-18.5v45.5h838v-47m-698.3-20.3h-5.9v14.3h-.7v-19.3h6.6z" fill="#f16935" opacity=".34" transform="translate(132.1 29.5)"/><g fill="#5f2265"><path d="m722.5 455.9h-549a3.9 3.9 0 0 1 0-7.8h549a3.9 3.9 0 0 1 0 7.8z" transform="translate(132.1 29.5)"/><path d="m172.1 451.8v-3.2l5.2-1.3v-2.2l1.1-.8.7-5h1.2v-4.1l1.3-1.1s-.8-4.4.9-4a2.4 2.4 0 0 1 1.6 3s1.3 1 .8 2.2a2.5 2.5 0 0 1 1.4 1.9l1.7-2.4v-10.4h-1v-1.9h2s-2-3.5 0-5.5c0 0-.1-4.9 2.4-5.2 0 0-1.6-2.8 0-2.7s2.4 4.7 1.5 6.6l1.2 1.5v-3l2.6-2.8v-53.2h-1.3v-3l-1.3-4.2v-3.9h2.6v-5.3h-1.2v-2.8h2.6v-1.2l1.8-.8v-1.7s-3-2.2-2.3-3.6 2.1-3.6 1.7-4.2-2.3-.1-3.1-1.6-4.3-4.6-4.8-6.4.4-3.7 1.2-2.8l4.9 4.9s.1-2 .6-1.7.3 2.6.3 2.6l1.5 1.4s.5-2.2 1.1-2.2l1.4-.2 1.6-2.6s2.9-.7 2.6.1-3.7 4-3.7 4.7.2 3 .8 3.2 2.4.4 1.9.9-2.7-.2-2.6.4 2.8 3.3 2.8 4.2-1.6 3.4-1.8 2.6-.7-1.8-.8-1.4a17.1 17.1 0 0 0 -.8 2.9c0 .6 2 1.1 2.1 1.4s0 1.1 0 1.1h2.2v2.9h-1.4v5.4h2.8v4.2l-1.6 3.9v2.8h-1.3v53l2.9 3v2.7s1.2-1.4 1.5-1.2-1.6-5.2 0-6 2.3-.7 2.3 0a8 8 0 0 1 -.7 2.2 5.9 5.9 0 0 1 2.4 5.4s1.8 1.6.1 5h1.5v2.6h-1.1l.3 9.8 1.6 2.6s-.2-2.2 1-2.2-.1-2.4 1-2.1-.1-3 1.4-2.8a2.3 2.3 0 0 1 1.4 3.7l1.4 2.5v3.1h1.1v4.9l1.5.7v2.5l6.5 1.6v2.1z" transform="translate(132.1 29.5)"/><path d="m495.7 452.1s32.5-7.7 38.9-15.2 6.9-27.2-15.1-40c-9.6-5.5-2.2-7.8 7.6-10.7s48.2-19.7 56.1-18.8 9.6 7 13.6 13.8 14.1 20.2 14.3 23.9-8.8 6-7.7 11.4 4.2 16.2 18.3 25 14.2 10.6 14.2 10.6z" transform="translate(132.1 29.5)"/><path d="m450.6 350c-.7.5-1 98.7-1 98.7h13.2v-94.6l8.4-1.5v-6.2z" transform="translate(132.1 29.5)"/><path d="m643.5 478.4-3.3-112.2-1.9-1.1v-8.7l-9.7-7.4v129.4z"/><path d="m430.3 332.8s-4.1 115.3-4.1 116.1l21.4-.3 1.7-99.5 23.1-3.9-1.1 103.7h24.2v-129.7z" transform="translate(132.1 29.5)"/><path d="m393.6 309.8v170.6l1.7.1v-170.7z"/><path d="m246.2 280.8c-.8 1.7 0 2.3 0 2.3v10.2h-4.7l-3.5 152.3v3.8l22 1.4v-175.6c-.4.1-12.9 3.9-13.8 5.6z" transform="translate(132.1 29.5)"/><path d="m413.6 281.2-16.8 17.4v11.2 170.8l16.8 1z"/><path d="m513.4 425.3h-.1z"/><path d="m507.4 423.3-7.7-2.7-7.1 1.3-47 58.4h122.2z"/><path d="m474.6 425-2.2.4v-.1h-4.3l-3.1 5.8h-1.2l-1.6 2h-2.6l-2.3 4.4h-3.8l-1.4 2.6h-1.2l-1.8 3.3h-2.7l-5.1 6h-2.1l-2.1 3.1h-1.8l-1.8 3.1h-2.3l-5.7 5.6-3.1 2.7h-2l-1.8 3.8h-3.9l-7.8 7.7h-3.8l-2.4 4.9h18.7z"/><path d="m513.4 425.3h-.1l-4.1-1.4 59.8 56.4h8.9l-59.7-55h-4.7v.1z"/><path d="m513.3 424.5.6-10-17.6-7.7-23 5.3-.8 12.5 27.2-4.8z"/><path d="m491.4 422.1-15.4 2.7-55.5 55.5h24z"/><path d="m513.5 425.4v-.1h-.1z"/><path d="m650.7 388.5h.8v-.5h-.8z" transform="translate(132.1 29.5)"/><path d="m688.4 388.5v-.5h-.9a1.1 1.1 0 0 1 .1.5z" transform="translate(132.1 29.5)"/><path d="m761.9 446.5h7.4v14.06h-7.4z"/><path d="m834.3 446.5h7.4v14.06h-7.4z"/><path d="m796.4 446.5h11.3v14.06h-11.3z"/><path d="m778.8 446.5h7.4v14.06h-7.4z"/><path d="m817.4 446.5h7.4v14.06h-7.4z"/><path d="m627.9 407.1h-8.6v9.6h-1.1v3.6h1.1v11.1h-.9v3.1h102.7v-3.1h-1.8v-11.1h1.8v-3.6h-1.9v-9.2h-7.5v-7.3h-83.8zm48.7 24.9h-13.2v-16h13.2zm29.5-24a3.9 3.9 0 0 1 4.1 3.1c.1.2-.1.5-.4.5h-.1a.4.4 0 0 1 -.4-.4 3.1 3.1 0 0 0 -3.2-2.4c-3 0-3.5 2.3-3.5 2.4a.5.5 0 0 1 -.6.3c-.3 0-.4-.3-.4-.5s.6-3 4.5-3zm-4.9 8h9.4v16h-9.4zm-16.8 0h9.3v16h-9.3zm-14.8-14.2c11.4 0 12.6 12.4 12.6 12.5s-.1.5-.4.5a.5.5 0 0 1 -.5-.4c-.1-.5-1.2-11.6-11.7-11.6s-11.4 11.4-11.5 11.8a.5.5 0 0 1 -.4.5h-.1c-.2 0-.4-.3-.4-.5s1.1-12.8 12.4-12.8zm-23.9 14.2h9.4v16h-9.4zm-12-8a4.2 4.2 0 0 1 4.2 3.1c0 .2-.2.5-.4.5h-.1a.5.5 0 0 1 -.5-.4 3.1 3.1 0 0 0 -3.2-2.4c-3 0-3.5 2.3-3.5 2.4a.5.5 0 0 1 -.6.3c-.2 0-.4-.3-.4-.5a4.5 4.5 0 0 1 4.5-3zm-4.8 8h9.3v16h-9.3z" transform="translate(132.1 29.5)"/><path d="m672.5 364h-2.2v-1.3a1.2 1.2 0 0 0 .8-.9c.2-.6-.7-.6-.7-.6s0-.8.4-.8 1.8-2 2.2-2.5-.3-1.4-.9-.4a7.3 7.3 0 0 1 -1.9 1.7s-.1-1.2-.7-1.3-.4 1.2-.4 1.2-1.6-2.7-2.3-1.6 2.3 2.8 2.3 2.8v.8s-.8.3-.7.8.7.9.7.9v1.2h-2.3v6h5.7z" transform="translate(132.1 29.5)"/><path d="m651.8 387.1h35.5c-.9-4.1-4.3-14.4-14.6-16.1h-6.1c-10.5 1.7-13.9 12.2-14.8 16.1z" transform="translate(132.1 29.5)"/><path d="m750.5 473.8h-1.3v5.7h105v-5.7h-1.1v-8.8h-102.6z"/><path d="m708.7 398.6c-6.1-11.7-17.6-9.9-17.6-9.9v-2.5h-2.7v2.3h-.8a1.1 1.1 0 0 0 -.1-.5h-36v.5h-.8v-2.3h-3v2.4a18.6 18.6 0 0 0 -17.4 10.6h81.4v-.6z" transform="translate(132.1 29.5)"/><path d="m20.8 470.4-6.4 2.5 6.4 2.6v2.8l-10.3-4.3v-2.2l10.3-4.3z" transform="translate(132.1 29.5)"/><path d="m26.8 481.8-5.2-18.1h3.3l5.1 18.1z" transform="translate(132.1 29.5)"/><path d="m30.9 475.5 6.3-2.6-6.3-2.5v-2.9l10.3 4.3v2.2l-10.3 4.3z" transform="translate(132.1 29.5)"/><path d="m56.8 470.4-6.4 2.5 6.4 2.6v2.8l-10.3-4.3v-2.2l10.3-4.3z" transform="translate(132.1 29.5)"/><path d="m62.8 481.8-5.2-18.1h3.3l5.1 18.1z" transform="translate(132.1 29.5)"/><path d="m66.9 475.5 6.3-2.6-6.3-2.5v-2.9l10.3 4.3v2.2l-10.3 4.3z" transform="translate(132.1 29.5)"/><path d="m92.8 470.4-6.4 2.5 6.4 2.6v2.8l-10.3-4.3v-2.2l10.3-4.3z" transform="translate(132.1 29.5)"/><path d="m98.8 481.8-5.2-18.1h3.3l5.1 18.1z" transform="translate(132.1 29.5)"/><path d="m102.9 475.5 6.3-2.6-6.3-2.5v-2.9l10.3 4.3v2.2l-10.3 4.3z" transform="translate(132.1 29.5)"/><path d="m128.8 470.4-6.4 2.5 6.4 2.6v2.8l-10.4-4.3v-2.2l10.4-4.3z" transform="translate(132.1 29.5)"/><path d="m134.8 481.8-5.2-18.1h3.3l5.1 18.1z" transform="translate(132.1 29.5)"/><path d="m138.8 475.5 6.4-2.6-6.4-2.5v-2.9l10.4 4.3v2.2l-10.4 4.3z" transform="translate(132.1 29.5)"/><path d="m164.7 470.4-6.3 2.5 6.3 2.6v2.8l-10.3-4.3v-2.2l10.3-4.3z" transform="translate(132.1 29.5)"/><path d="m170.7 481.8-5.1-18.1h3.3l5.1 18.1z" transform="translate(132.1 29.5)"/><path d="m174.8 475.5 6.4-2.6-6.4-2.5v-2.9l10.3 4.3v2.2l-10.3 4.3z" transform="translate(132.1 29.5)"/><path d="m200.7 470.4-6.3 2.5 6.3 2.6v2.8l-10.3-4.3v-2.2l10.3-4.3z" transform="translate(132.1 29.5)"/><path d="m206.7 481.8-5.1-18.1h3.2l5.2 18.1z" transform="translate(132.1 29.5)"/><path d="m196.8 458.2h-7.5v-7.5h7.5zm-15.1 0h-7.6v-7.5h7.6zm-15.1 0h-7.6v-7.5h7.6zm-15.1 0h-7.6v-7.5h7.6zm-15.2 0h-7.5v-7.5h7.5zm-15.1 0h-7.6v-7.5h7.6zm-15.1 0h-7.6v-7.5h7.6zm-15.2 0h-7.5v-7.5h7.5zm-15.1 0h-7.5v-7.5h7.5zm-15.1 0h-7.6v-7.5h7.6zm-15.1 0h-7.6v-7.5h7.6zm-15.2 0h-7.5v-7.5h7.5zm-15.1 0h-7.5v-7.5h7.5z" transform="translate(132.1 29.5)"/><path d="m196.7 494.7h-7.5v-7.5h7.5zm-15.1 0h-7.6v-7.5h7.6zm-15.1 0h-7.6v-7.5h7.6zm-15.1 0h-7.6v-7.5h7.6zm-15.2 0h-7.5v-7.5h7.5zm-15.1 0h-7.6v-7.5h7.6zm-15.1 0h-7.6v-7.5h7.6zm-15.2 0h-7.5v-7.5h7.5zm-15.1 0h-7.5v-7.5h7.5zm-15.1 0h-7.6v-7.5h7.6zm-15.1 0h-7.6v-7.5h7.6zm-15.2 0h-7.5v-7.5h7.5zm-15.1 0h-7.5v-7.5h7.5z" transform="translate(132.1 29.5)"/><path d="m212.2 475.5 6.3-2.6-6.3-2.5v-2.9l10.3 4.3v2.2l-10.3 4.3z" transform="translate(132.1 29.5)"/><path d="m238.1 470.4-6.4 2.5 6.4 2.6v2.8l-10.4-4.3v-2.2l10.4-4.3z" transform="translate(132.1 29.5)"/><path d="m244.1 481.8-5.2-18.1h3.3l5.1 18.1z" transform="translate(132.1 29.5)"/><path d="m248.2 475.5 6.3-2.6-6.3-2.5v-2.9l10.3 4.3v2.2l-10.3 4.3z" transform="translate(132.1 29.5)"/><path d="m274.1 470.4-6.4 2.5 6.4 2.6v2.8l-10.4-4.3v-2.2l10.4-4.3z" transform="translate(132.1 29.5)"/><path d="m280.1 481.8-5.2-18.1h3.3l5.1 18.1z" transform="translate(132.1 29.5)"/><path d="m284.1 475.5 6.4-2.6-6.4-2.5v-2.9l10.4 4.3v2.2l-10.4 4.3z" transform="translate(132.1 29.5)"/><path d="m310 470.4-6.3 2.5 6.3 2.6v2.8l-10.3-4.3v-2.2l10.3-4.3z" transform="translate(132.1 29.5)"/><path d="m316 481.8-5.1-18.1h3.3l5.1 18.1z" transform="translate(132.1 29.5)"/><path d="m320.1 475.5 6.4-2.6-6.4-2.5v-2.9l10.3 4.3v2.2l-10.3 4.3z" transform="translate(132.1 29.5)"/><path d="m346 470.4-6.3 2.5 6.3 2.6v2.8l-10.3-4.3v-2.2l10.3-4.3z" transform="translate(132.1 29.5)"/><path d="m352 481.8-5.1-18.1h3.2l5.2 18.1z" transform="translate(132.1 29.5)"/><path d="m356.1 475.5 6.4-2.6-6.4-2.5v-2.9l10.3 4.3v2.2l-10.3 4.3z" transform="translate(132.1 29.5)"/><path d="m363 458.2h-7.6v-7.5h7.6zm-15.1 0h-7.6v-7.5h7.6zm-15.2 0h-7.5v-7.5h7.5zm-15.1 0h-7.5v-7.5h7.5zm-15.1 0h-7.6v-7.5h7.6zm-15.1 0h-7.6v-7.5h7.6zm-15.2 0h-7.5v-7.5h7.5zm-15.1 0h-7.6v-7.5h7.6zm-15.1 0h-7.6v-7.5h7.6zm-15.1 0h-7.6v-7.5h7.6zm-15.2 0h-7.5v-7.5h7.5z" transform="translate(132.1 29.5)"/><path d="m362.9 494.7h-7.6v-7.5h7.6zm-15.1 0h-7.6v-7.5h7.6zm-15.2 0h-7.5v-7.5h7.5zm-15.1 0h-7.6v-7.5h7.6zm-15.1 0h-7.6v-7.5h7.6zm-15.1 0h-7.6v-7.5h7.6zm-15.2 0h-7.5v-7.5h7.5zm-15.1 0h-7.6v-7.5h7.6zm-15.1 0h-7.6v-7.5h7.6zm-15.1 0h-7.6v-7.5h7.6zm-15.2 0h-7.5v-7.5h7.5z" transform="translate(132.1 29.5)"/><path d="m381.7 470.4-6.4 2.5 6.4 2.6v2.8l-10.3-4.3v-2.2l10.3-4.3z" transform="translate(132.1 29.5)"/><path d="m387.7 481.8-5.2-18.1h3.3l5.2 18.1z" transform="translate(132.1 29.5)"/><path d="m391.8 475.5 6.4-2.6-6.4-2.5v-2.9l10.3 4.3v2.2l-10.3 4.3z" transform="translate(132.1 29.5)"/><path d="m417.7 470.4-6.4 2.5 6.4 2.6v2.8l-10.3-4.3v-2.2l10.3-4.3z" transform="translate(132.1 29.5)"/><path d="m423.7 481.8-5.2-18.1h3.3l5.1 18.1z" transform="translate(132.1 29.5)"/><path d="m427.8 475.5 6.3-2.6-6.3-2.5v-2.9l10.3 4.3v2.2l-10.3 4.3z" transform="translate(132.1 29.5)"/><path d="m453.7 470.4-6.4 2.5 6.4 2.6v2.8l-10.3-4.3v-2.2l10.3-4.3z" transform="translate(132.1 29.5)"/><path d="m459.7 481.8-5.2-18.1h3.3l5.1 18.1z" transform="translate(132.1 29.5)"/><path d="m463.8 475.5 6.3-2.6-6.3-2.5v-2.9l10.3 4.3v2.2l-10.3 4.3z" transform="translate(132.1 29.5)"/><path d="m489.7 470.4-6.4 2.5 6.4 2.6v2.8l-10.4-4.3v-2.2l10.4-4.3z" transform="translate(132.1 29.5)"/><path d="m495.7 481.8-5.2-18.1h3.3l5.1 18.1z" transform="translate(132.1 29.5)"/><path d="m499.7 475.5 6.4-2.6-6.4-2.5v-2.9l10.4 4.3v2.2l-10.4 4.3z" transform="translate(132.1 29.5)"/><path d="m525.6 470.4-6.3 2.5 6.3 2.6v2.8l-10.3-4.3v-2.2l10.3-4.3z" transform="translate(132.1 29.5)"/><path d="m531.6 481.8-5.1-18.1h3.3l5.1 18.1z" transform="translate(132.1 29.5)"/><path d="m535.7 475.5 6.4-2.6-6.4-2.5v-2.9l10.4 4.3v2.2l-10.4 4.3z" transform="translate(132.1 29.5)"/><path d="m561.6 470.4-6.3 2.5 6.3 2.6v2.8l-10.3-4.3v-2.2l10.3-4.3z" transform="translate(132.1 29.5)"/><path d="m567.6 481.8-5.1-18.1h3.2l5.2 18.1z" transform="translate(132.1 29.5)"/><path d="m557.7 458.2h-7.5v-7.5h7.5zm-15.1 0h-7.5v-7.5h7.5zm-15.1 0h-7.6v-7.5h7.6zm-15.1 0h-7.6v-7.5h7.6zm-15.2 0h-7.5v-7.5h7.5zm-15.1 0h-7.6v-7.5h7.6zm-15.1 0h-7.6v-7.5h7.6zm-15.1 0h-7.6v-7.5h7.6zm-15.2 0h-7.5v-7.5h7.5zm-15.1 0h-7.6v-7.5h7.6zm-15.1 0h-7.6v-7.5h7.6zm-15.1 0h-7.6v-7.5h7.6zm-15.2 0h-7.5v-7.5h7.5z" transform="translate(132.1 29.5)"/><path d="m557.6 494.7h-7.5v-7.5h7.5zm-15.1 0h-7.6v-7.5h7.6zm-15.1 0h-7.6v-7.5h7.6zm-15.1 0h-7.6v-7.5h7.6zm-15.2 0h-7.5v-7.5h7.5zm-15.1 0h-7.6v-7.5h7.6zm-15.1 0h-7.6v-7.5h7.6zm-15.1 0h-7.6v-7.5h7.6zm-15.2 0h-7.5v-7.5h7.5zm-15.1 0h-7.6v-7.5h7.6zm-15.1 0h-7.6v-7.5h7.6zm-15.2 0h-7.5v-7.5h7.5zm-15.1 0h-7.5v-7.5h7.5z" transform="translate(132.1 29.5)"/><path d="m573.1 475.5 6.3-2.6-6.3-2.5v-2.9l10.3 4.3v2.2l-10.3 4.3z" transform="translate(132.1 29.5)"/><path d="m599 470.4-6.4 2.5 6.4 2.6v2.8l-10.3-4.3v-2.2l10.3-4.3z" transform="translate(132.1 29.5)"/><path d="m605 481.8-5.2-18.1h3.3l5.1 18.1z" transform="translate(132.1 29.5)"/><path d="m609.1 475.5 6.3-2.6-6.3-2.5v-2.9l10.3 4.3v2.2l-10.3 4.3z" transform="translate(132.1 29.5)"/><path d="m635 470.4-6.4 2.5 6.4 2.6v2.8l-10.4-4.3v-2.2l10.4-4.3z" transform="translate(132.1 29.5)"/><path d="m641 481.8-5.2-18.1h3.3l5.1 18.1z" transform="translate(132.1 29.5)"/><path d="m645 475.5 6.4-2.6-6.4-2.5v-2.9l10.4 4.3v2.2l-10.4 4.3z" transform="translate(132.1 29.5)"/><path d="m670.9 470.4-6.3 2.5 6.3 2.6v2.8l-10.3-4.3v-2.2l10.3-4.3z" transform="translate(132.1 29.5)"/><path d="m676.9 481.8-5.1-18.1h3.3l5.1 18.1z" transform="translate(132.1 29.5)"/><path d="m681 475.5 6.4-2.6-6.4-2.5v-2.9l10.3 4.3v2.2l-10.3 4.3z" transform="translate(132.1 29.5)"/><path d="m706.9 470.4-6.3 2.5 6.3 2.6v2.8l-10.3-4.3v-2.2l10.3-4.3z" transform="translate(132.1 29.5)"/><path d="m712.9 481.8-5.1-18.1h3.2l5.2 18.1z" transform="translate(132.1 29.5)"/><path d="m717 475.5 6.4-2.6-6.4-2.5v-2.9l10.3 4.3v2.2l-10.3 4.3z" transform="translate(132.1 29.5)"/><path d="m723.9 458.2h-7.6v-7.5h7.6zm-15.1 0h-7.6v-7.5h7.6zm-15.2 0h-7.5v-7.5h7.5zm-15.1 0h-7.5v-7.5h7.5zm-15.1 0h-7.6v-7.5h7.6zm-15.1 0h-7.6v-7.5h7.6zm-15.2 0h-7.5v-7.5h7.5zm-15.1 0h-7.5v-7.5h7.5zm-15.1 0h-7.6v-7.5h7.6zm-15.1 0h-7.6v-7.5h7.6zm-15.2 0h-7.5v-7.5h7.5z" transform="translate(132.1 29.5)"/><path d="m723.8 494.7h-7.6v-7.5h7.6zm-15.1 0h-7.6v-7.5h7.6zm-15.2 0h-7.5v-7.5h7.5zm45 0h-7.5v-7.5h7.5zm-60.1 0h-7.5v-7.5h7.5zm-15.1 0h-7.6v-7.5h7.6zm-15.1 0h-7.6v-7.5h7.6zm-15.2 0h-7.5v-7.5h7.5zm-15.1 0h-7.6v-7.5h7.6zm-15.1 0h-7.6v-7.5h7.6zm-15.1 0h-7.6v-7.5h7.6zm-15.2 0h-7.5v-7.5h7.5z" transform="translate(132.1 29.5)"/><path d="m128.1 479.2h730v9h-730z"/></g></g></svg>